# xmcd
#
# Track frame offsets:
#	150
#	12393
#	31383
#	44305
#	59210
#	71419
#	85966
#	99931
#	113933
#	129009
#	147016
#	157051
#	170643
#	185593
#	199861
#	211420
#	226084
#	241975
#	253616
#	267810
#	278374
#	296298
#
# Disc length: 4129 seconds
#
# Revision: 0
# Processed by: cddbd v1.4PL0 Copyright (c) Steve Scherf et al.
# Submitted via: audiograbber 1.80
#
DISCID=36101f16
DTITLE=Country - C C - The Late '70s - Hot Hits
DYEAR=1900
DGENRE=
TTITLE0=Loretta Lynn - Out Of My Head And Back In My Bed
TTITLE1=Waylon Jennings - I've Always Been Crazy
TTITLE2=Conway Twitty - I've Already Loved You In My Mind
TTITLE3=Ronnie Milsap - Back On My Mind Again
TTITLE4=Elvis Presley - Way Down
TTITLE5=Johnny Paycheck - I'm The Only Hell (Mama Ever Raised)
TTITLE6=Johnny Duncan - It Couldn't Have Been Any Better
TTITLE7=Don Williams - I'm Just A Country Boy
TTITLE8=Johnny Cas and Waylon Jennings - There Ain't No Good Chain Gang
TTITLE9=Gene Watson - Paper Rosie
TTITLE10=Charley Pride - Someone Loves You Honey
TTITLE11=Waylon Jennings - Don't You Think This Otlaw Bit's Done Got Out Of Han
TTITLE11=d
TTITLE12=Merle Haggard - If We're Not Back In Love By Monday
TTITLE13=Moe Bandy - I Cheated Me Right Out Of You
TTITLE14=The Kendalls - Sweet Desire
TTITLE15=Charlie Rich and Janie Fricke - On My Knees
TTITLE16=Dolly Parton - Heartbreaker
TTITLE17=Dave and Sugar - Golden Tears
TTITLE18=John Conlee - Lady Lay Down
TTITLE19=Freddy Fender - The Rains Come
TTITLE20=Ronnie Milsap - Nobody Likes Sad Songs
TTITLE21=Charley Pride - Where Do I Put Her Memory
EXTD=Add Artists to the list
EXTT0=
EXTT1=
EXTT2=
EXTT3=
EXTT4=
EXTT5=
EXTT6=
EXTT7=
EXTT8=
EXTT9=
EXTT10=
EXTT11=
EXTT12=
EXTT13=
EXTT14=
EXTT15=
EXTT16=
EXTT17=
EXTT18=
EXTT19=
EXTT20=
EXTT21=
PLAYORDER=
